<?xml version="1.0" encoding="utf-8"?>
<!-- Svg Vector Icons : http://www.onlinewebfonts.com/icon -->
<!DOCTYPE svg PUBLIC "-//W3C//DTD SVG 1.1//EN" "http://www.w3.org/Graphics/SVG/1.1/DTD/svg11.dtd">
<svg version="1.1" xmlns="http://www.w3.org/2000/svg" xmlns:xlink="http://www.w3.org/1999/xlink" x="0px" y="0px" viewBox="0 0 256 256" enable-background="new 0 0 256 256" xml:space="preserve">
<path fill="#000000" d="M40.2,152.4c10,27.7,33.3,48.7,61.4,56.9c5,9.6,15,16.1,26.5,16.1c11.5,0,21.5-6.6,26.5-16.1c28.1-8.3,51.3-29.3,61.4-56.9c16.7-0.2,30.2-13.8,30.2-30.5s-13.5-30.3-30.2-30.5c-11.3-31.2-39.5-54-72.4-59.5c-0.6-0.2-1.1-0.4-1.8-0.4c-0.4,0-0.8,0-1.3,0c-4.1-0.6-8.2-0.9-12.4-0.9c-39.3,0-74.8,24.8-87.8,60.8C23.5,91.6,10,105.2,10,121.9S23.5,152.2,40.2,152.4z M109.6,169.9c0-3.2,7.3-8.1,18.4-8.1c11.1,0,18.4,4.9,18.4,8.1c0,0.6-0.3,1.2-0.7,1.8c-5-3.7-11.1-5.9-17.7-5.9c-6.6,0-12.7,2.2-17.7,5.9C109.9,171.1,109.6,170.5,109.6,169.9z M133.9,213c-1.9,0.6-3.8,1.1-5.9,1.1s-4-0.4-5.9-1.1c-6-2-10.5-7-12-13.2c-0.3-1.3-0.5-2.7-0.5-4.1c0-3.3,1-6.4,2.5-9.1c2.5-4.3,6.7-7.6,11.7-8.7c1.3-0.3,2.8-0.5,4.2-0.5c1.4,0,2.9,0.2,4.2,0.5c5,1.2,9.2,4.4,11.7,8.7c1.6,2.7,2.5,5.8,2.5,9.1c0,1.4-0.2,2.8-0.5,4.1C144.4,206,139.8,211,133.9,213z M40.5,102.8c0.8,0,1.7,0.1,2.8,0.2l4.9,0.7l1.4-4.7c6.9-22.8,24-40.9,45.4-50.2c-4.8,10.6,1.7,23.7,12.5,28.8c13.5,6.4,35.4,7.2,44.6-6.6c4.1-6.2,0.5-14.1-4.6-18.4c-7-6-17.2-6.8-25.6-3.5c-6.8,2.7-3.8,13.7,3,11c5-2,9.5-2.1,14.3,0.5c6.5,3.6,0.5,7.7-4,9c-8.5,2.5-21.1,0.5-27.7-5.5c-8.4-7.5,2.4-16.1,9.1-18.4c7.3-2.6,15.2-3.1,22.9-2.8c31.1,4.4,57.7,26.2,66.8,56.2l1.4,4.7l4.9-0.7c1.1-0.2,2-0.2,2.8-0.2c10.5,0,19.1,8.6,19.1,19.1c0,10.5-8.6,19.1-19.1,19.1c-0.8,0-1.7-0.1-2.8-0.2l-4.9-0.7l-1.4,4.7c-7.2,23.9-25.6,42.6-48.5,51.4c0-0.2,0-0.3,0-0.5c0-5.7-1.6-10.9-4.4-15.5c2.8-3,4.4-6.5,4.4-10.3c0-11-13.1-19.6-29.8-19.6s-29.8,8.6-29.8,19.6c0,3.8,1.6,7.3,4.4,10.3c-2.7,4.5-4.4,9.8-4.4,15.5c0,0.2,0,0.3,0,0.5c-22.9-8.9-41.3-27.5-48.6-51.4l-1.4-4.7l-4.9,0.7c-1.1,0.2-2,0.2-2.8,0.2c-10.5,0-19.1-8.6-19.1-19.1C21.4,111.3,30,102.8,40.5,102.8z"/><path fill="#000000" d="M103.9,133.1c9.8,0,9.8-15.2,0-15.2C94.1,117.9,94.1,133.1,103.9,133.1z"/><path fill="#000000" d="M152.1,132.2c9.8,0,9.8-15.2,0-15.2S142.3,132.2,152.1,132.2z"/>
</svg>
