<?xml version="1.0" encoding="utf-8"?>
<!-- Generator: Adobe Illustrator 27.4.1, SVG Export Plug-In . SVG Version: 6.00 Build 0)  -->
<svg version="1.1" xmlns="http://www.w3.org/2000/svg" xmlns:xlink="http://www.w3.org/1999/xlink" x="0px" y="0px"
	 viewBox="0 0 1024 1077" style="enable-background:new 0 0 1024 1077;" xml:space="preserve">
<style type="text/css">
	.st0{fill:#1D1F25;}
	.st1{fill:#DFEBDD;}
	
		.st2{clip-path:url(#SVGID_00000148644776867793911290000010648605283130080682_);fill:url(#SVGID_00000096022992351533733400000002967542079080975527_);}
	.st3{opacity:0.44;clip-path:url(#SVGID_00000148644776867793911290000010648605283130080682_);fill:#B2FEF9;}
	.st4{opacity:0.44;clip-path:url(#SVGID_00000148644776867793911290000010648605283130080682_);fill:#D0FEF9;}
	.st5{opacity:0.36;clip-path:url(#SVGID_00000148644776867793911290000010648605283130080682_);fill:#88DAE4;}
	.st6{clip-path:url(#SVGID_00000148644776867793911290000010648605283130080682_);}
	.st7{fill:#FFFFFF;}
	.st8{opacity:0.41;clip-path:url(#SVGID_00000148644776867793911290000010648605283130080682_);}
	.st9{opacity:0.68;clip-path:url(#SVGID_00000148644776867793911290000010648605283130080682_);fill:#FFFEF9;}
	.st10{clip-path:url(#SVGID_00000148644776867793911290000010648605283130080682_);fill:#7CE4FF;}
	.st11{opacity:0.36;clip-path:url(#SVGID_00000148644776867793911290000010648605283130080682_);fill:#44C6C0;}
	.st12{opacity:0.36;clip-path:url(#SVGID_00000148644776867793911290000010648605283130080682_);fill:#96C6C6;}
	.st13{clip-path:url(#SVGID_00000148644776867793911290000010648605283130080682_);fill:#42D0D8;}
	.st14{clip-path:url(#SVGID_00000148644776867793911290000010648605283130080682_);fill:#5ADAD4;}
	.st15{clip-path:url(#SVGID_00000148644776867793911290000010648605283130080682_);fill:#58BCBA;}
	.st16{opacity:0.88;clip-path:url(#SVGID_00000148644776867793911290000010648605283130080682_);fill:#5EE0C2;}
	.st17{clip-path:url(#SVGID_00000148644776867793911290000010648605283130080682_);fill:#76E0DF;}
	.st18{clip-path:url(#SVGID_00000148644776867793911290000010648605283130080682_);fill:#32DEDF;}
	.st19{clip-path:url(#SVGID_00000148644776867793911290000010648605283130080682_);fill:#74E1DF;}
	.st20{clip-path:url(#SVGID_00000148644776867793911290000010648605283130080682_);fill:#76E6C6;}
	.st21{opacity:0.34;clip-path:url(#SVGID_00000148644776867793911290000010648605283130080682_);}
	.st22{fill:none;stroke:#FFFEF9;stroke-width:5;stroke-linecap:round;stroke-miterlimit:10;}
	.st23{fill:#FFFEF9;}
	.st24{fill:none;stroke:#FFFEF9;stroke-width:4;stroke-linecap:round;stroke-miterlimit:10;}
	.st25{opacity:0.82;fill:#38C8C4;}
	.st26{opacity:0.82;fill:#46CEE0;}
	.st27{opacity:0.82;fill:#46D4E0;}
	.st28{opacity:0.82;fill:#38C8D0;}
	.st29{opacity:0.88;fill:#5EE0C2;}
	.st30{opacity:0.82;fill:#38C8DE;}
	.st31{opacity:0.34;}
	.st32{opacity:0.82;fill:#58C8DE;}
	.st33{opacity:0.82;fill:#62E0C4;}
	.st34{opacity:0.82;fill:#72DCDA;}
	.st35{fill:#42C8DA;}
	.st36{fill:#42C8AC;}
	.st37{fill:#28C2D2;}
	.st38{fill:#20C4C2;}
	.st39{fill:#26C2DA;}
	.st40{fill:#46C2B8;}
	.st41{opacity:0.37;fill:none;stroke:#FFFEF9;stroke-width:3;stroke-linecap:round;stroke-miterlimit:10;}
	.st42{opacity:0.34;fill:#FFFEF9;}
	.st43{opacity:0.44;clip-path:url(#SVGID_00000148644776867793911290000010648605283130080682_);fill:#C6FEF9;}
	.st44{opacity:0.44;clip-path:url(#SVGID_00000148644776867793911290000010648605283130080682_);fill:#CAFEF9;}
</style>
<g id="Layer_1">
	<rect x="0.03" y="1022.41" class="st0" width="1023.69" height="55.78"/>
	<g>
		<g>
			<g>
				<path class="st1" d="M330.67,1040.21h4.03c3.17,0,5.78,0.83,7.83,2.48c2.07,1.66,3.1,4.02,3.1,7.09c0,3.16-1.02,5.58-3.07,7.25
					c-2.05,1.68-4.69,2.51-7.94,2.51h-3.95V1040.21z M333.09,1057.35h0.85c1.26,0,2.45-0.12,3.57-0.37c1.12-0.25,2.1-0.67,2.94-1.26
					c0.83-0.6,1.5-1.37,2-2.31c0.5-0.95,0.75-2.12,0.75-3.52c0-1.39-0.24-2.57-0.74-3.55c-0.49-0.99-1.17-1.75-2.06-2.3
					c-0.87-0.56-1.84-0.97-2.9-1.22c-1.06-0.27-2.25-0.39-3.55-0.39h-0.85V1057.35z"/>
				<path class="st1" d="M349.19,1053.94c0.03,1.07,0.38,2.01,1.03,2.8c0.67,0.79,1.54,1.17,2.61,1.17c0.85,0,1.54-0.19,2.08-0.58
					c0.54-0.39,1.06-0.97,1.54-1.75l1.97,1.1c-0.57,1.02-1.35,1.82-2.34,2.42c-0.99,0.58-2.08,0.86-3.27,0.86
					c-1.81,0-3.26-0.59-4.34-1.79c-1.07-1.23-1.61-2.72-1.61-4.52c0-1.88,0.51-3.45,1.53-4.66c1-1.21,2.45-1.79,4.37-1.79
					c1.87,0,3.26,0.58,4.21,1.79c0.96,1.19,1.45,2.73,1.45,4.59v0.36H349.19z M356.09,1052.2c-0.15-0.93-0.49-1.67-1.07-2.2
					c-0.58-0.54-1.33-0.81-2.26-0.81c-0.44,0-0.87,0.06-1.25,0.21c-0.39,0.16-0.73,0.37-1.03,0.63c-0.3,0.28-0.55,0.6-0.76,0.97
					c-0.2,0.38-0.33,0.77-0.39,1.2H356.09z"/>
				<path class="st1" d="M365.27,1050.3c-0.35-0.71-0.86-1.06-1.55-1.06c-0.33,0-0.62,0.12-0.88,0.34
					c-0.26,0.24-0.39,0.52-0.39,0.83c0,0.31,0.1,0.58,0.3,0.79c0.19,0.22,0.47,0.41,0.81,0.6c0.23,0.1,0.4,0.19,0.52,0.23
					c0.12,0.07,0.31,0.16,0.59,0.29c0.13,0.06,0.26,0.12,0.36,0.15c0.1,0.03,0.18,0.06,0.24,0.1c0.86,0.39,1.54,0.84,2.04,1.36
					c0.49,0.5,0.75,1.2,0.75,2.05c0,1.13-0.42,2.08-1.24,2.84c-0.81,0.76-1.79,1.13-2.92,1.13c-0.47,0-0.92-0.06-1.35-0.19
					c-0.43-0.12-0.83-0.3-1.21-0.54c-0.37-0.23-0.69-0.51-0.98-0.85c-0.28-0.34-0.5-0.71-0.66-1.11l1.99-0.89
					c0.57,1.02,1.3,1.53,2.2,1.53c0.36,0,0.7-0.09,1-0.29c0.32-0.2,0.55-0.44,0.69-0.74c0.14-0.31,0.18-0.63,0.09-0.99
					c-0.09-0.34-0.35-0.67-0.8-0.98l-2.28-1.2c-0.39-0.2-0.73-0.41-1.03-0.62c-0.29-0.21-0.53-0.42-0.72-0.65
					c-0.19-0.24-0.33-0.49-0.43-0.76c-0.09-0.29-0.14-0.61-0.14-0.99c0-0.98,0.34-1.8,1.04-2.47c0.69-0.68,1.53-1.01,2.53-1.01
					c1.52,0,2.62,0.68,3.31,2.1L365.27,1050.3z"/>
				<path class="st1" d="M373.61,1042.06c0,0.43-0.15,0.8-0.46,1.1c-0.31,0.31-0.69,0.46-1.13,0.46c-0.45,0-0.83-0.15-1.14-0.46
					c-0.31-0.3-0.46-0.67-0.46-1.1c0-0.45,0.15-0.83,0.46-1.15c0.31-0.32,0.69-0.46,1.14-0.46c0.44,0,0.82,0.15,1.13,0.46
					C373.45,1041.23,373.61,1041.61,373.61,1042.06z M373.18,1059.55h-2.33v-12h2.33V1059.55z"/>
				<path class="st1" d="M388.21,1059.33c0,2.25-0.43,4-1.29,5.26c-0.87,1.23-2.4,1.84-4.6,1.84c-1.71,0-3.1-0.49-4.19-1.46
					c-1.07-0.97-1.62-2.3-1.65-3.98h2.32c0,1.08,0.34,1.91,0.99,2.51c0.67,0.58,1.55,0.88,2.63,0.88c1.33,0,2.24-0.38,2.73-1.16
					c0.49-0.77,0.73-1.85,0.73-3.26v-2.29h-0.06c-0.48,0.73-1.08,1.29-1.79,1.69c-0.71,0.4-1.48,0.6-2.31,0.6
					c-1.8,0-3.21-0.62-4.25-1.87c-1.03-1.25-1.54-2.78-1.54-4.62c0-1.73,0.52-3.19,1.57-4.41c1.05-1.25,2.42-1.87,4.12-1.87
					c1.77,0,3.18,0.8,4.2,2.39h0.06v-2.04h2.33V1059.33z M382.09,1057.91c1.22,0,2.17-0.42,2.86-1.25c0.7-0.86,1.06-1.9,1.06-3.1
					c0-1.2-0.36-2.22-1.06-3.06c-0.68-0.83-1.64-1.26-2.86-1.26c-1.16,0-2.09,0.43-2.8,1.29c-0.69,0.84-1.04,1.84-1.04,3.02
					c0,1.21,0.35,2.23,1.04,3.07C380,1057.49,380.93,1057.91,382.09,1057.91z"/>
				<path class="st1" d="M393.56,1049.16h0.05c0.34-0.64,0.84-1.11,1.5-1.46c0.66-0.35,1.37-0.5,2.15-0.5
					c0.79,0,1.46,0.11,2.02,0.35c0.54,0.23,0.99,0.58,1.32,1.02c0.34,0.45,0.58,0.99,0.72,1.63c0.15,0.64,0.22,1.38,0.22,2.19v7.16
					h-2.33v-6.87c0-1.18-0.17-2.04-0.51-2.59c-0.35-0.57-1.06-0.85-2.14-0.85c-0.4,0-0.74,0.04-1.01,0.12
					c-0.28,0.07-0.52,0.18-0.73,0.33c-0.21,0.15-0.38,0.32-0.52,0.5c-0.13,0.19-0.27,0.39-0.38,0.63c-0.05,0.11-0.1,0.27-0.15,0.46
					c-0.04,0.18-0.07,0.38-0.11,0.57c-0.04,0.2-0.07,0.39-0.08,0.6c-0.02,0.2-0.03,0.35-0.03,0.47v1.12v5.52h-2.33v-12h2.33V1049.16
					z"/>
				<path class="st1" d="M412.04,1037.29h2.32v12.25h0.05c1.07-1.57,2.47-2.34,4.21-2.34c1.68,0,3.06,0.62,4.11,1.87
					c1.05,1.21,1.57,2.67,1.57,4.41c0,1.83-0.52,3.37-1.55,4.62c-1.04,1.25-2.45,1.87-4.24,1.87c-0.82,0-1.6-0.19-2.32-0.6
					c-0.71-0.4-1.31-0.96-1.79-1.69h-0.05v1.88h-2.32V1037.29z M418.06,1057.91c1.22,0,2.17-0.42,2.86-1.25
					c0.7-0.86,1.06-1.9,1.06-3.1c0-1.2-0.35-2.22-1.06-3.06c-0.69-0.83-1.64-1.26-2.86-1.26c-1.15,0-2.09,0.43-2.79,1.29
					c-0.69,0.84-1.04,1.84-1.04,3.02c0,1.21,0.35,2.23,1.04,3.07C415.97,1057.49,416.9,1057.91,418.06,1057.91z"/>
				<path class="st1" d="M424.64,1047.55h2.71l4.08,7.61l3.8-7.61h2.61l-9.8,18.88h-2.64l4.76-8.93L424.64,1047.55z"/>
				<path class="st1" d="M449.57,1054.69l-2.22,4.85h-2.61l9.3-20.15l9.31,20.15h-2.61l-2.23-4.85H449.57z M454.04,1044.67
					l-3.46,7.84h6.92L454.04,1044.67z"/>
				<path class="st1" d="M467.14,1059.55h-2.33v-22.26h2.33V1059.55z"/>
				<path class="st1" d="M472.87,1059.55h-2.32v-22.26h2.32V1059.55z"/>
				<path class="st1" d="M481.71,1050.37v1.92h-5.65v-1.92H481.71z"/>
				<path class="st1" d="M490.76,1039.62c-0.73-0.34-1.25-0.48-1.55-0.48c-0.5,0-0.87,0.14-1.09,0.47c-0.23,0.31-0.37,0.7-0.46,1.16
					c-0.05,0.35-0.08,0.61-0.1,0.82c-0.01,0.18-0.01,0.47-0.01,0.8v5.16h3.21v2.15h-3.21v9.84h-2.32v-9.84h-1.06v-2.15h1.06v-5.85
					c0-3.15,1.3-4.72,3.9-4.72c0.57,0,1.11,0.1,1.63,0.31V1039.62z"/>
				<path class="st1" d="M494.35,1049.5h0.07c0.3-0.72,0.73-1.29,1.3-1.69c0.57-0.43,1.24-0.61,2.01-0.61
					c0.64,0,1.28,0.19,1.92,0.58l-1.06,2.11c-0.37-0.33-0.86-0.48-1.42-0.48c-1.19,0-1.98,0.48-2.38,1.43
					c-0.17,0.45-0.3,0.9-0.35,1.33c-0.05,0.43-0.08,0.93-0.08,1.49v5.9h-2.32v-12h2.32V1049.5z"/>
				<path class="st1" d="M502.34,1053.94c0.04,1.07,0.37,2.01,1.03,2.8c0.68,0.79,1.54,1.17,2.61,1.17c0.85,0,1.54-0.19,2.08-0.58
					c0.54-0.39,1.05-0.97,1.54-1.75l1.96,1.1c-0.57,1.02-1.34,1.82-2.34,2.42c-0.99,0.58-2.07,0.86-3.27,0.86
					c-1.8,0-3.25-0.59-4.34-1.79c-1.06-1.23-1.6-2.72-1.6-4.52c0-1.88,0.51-3.45,1.53-4.66c0.99-1.21,2.44-1.79,4.36-1.79
					c1.87,0,3.28,0.58,4.22,1.79c0.97,1.19,1.44,2.73,1.44,4.59v0.36H502.34z M509.23,1052.2c-0.14-0.93-0.49-1.67-1.08-2.2
					c-0.58-0.54-1.33-0.81-2.26-0.81c-0.44,0-0.87,0.06-1.24,0.21c-0.39,0.16-0.73,0.37-1.04,0.63c-0.3,0.28-0.55,0.6-0.75,0.97
					c-0.19,0.38-0.33,0.77-0.4,1.2H509.23z"/>
				<path class="st1" d="M514.94,1053.94c0.04,1.07,0.38,2.01,1.04,2.8c0.67,0.79,1.53,1.17,2.6,1.17c0.85,0,1.54-0.19,2.08-0.58
					c0.54-0.39,1.06-0.97,1.54-1.75l1.96,1.1c-0.56,1.02-1.34,1.82-2.33,2.42c-0.99,0.58-2.09,0.86-3.27,0.86
					c-1.81,0-3.25-0.59-4.34-1.79c-1.07-1.23-1.6-2.72-1.6-4.52c0-1.88,0.51-3.45,1.53-4.66c1-1.21,2.45-1.79,4.37-1.79
					c1.85,0,3.26,0.58,4.2,1.79c0.97,1.19,1.44,2.73,1.44,4.59v0.36H514.94z M521.85,1052.2c-0.14-0.93-0.51-1.67-1.08-2.2
					c-0.58-0.54-1.34-0.81-2.25-0.81c-0.46,0-0.87,0.06-1.26,0.21c-0.39,0.16-0.74,0.37-1.03,0.63c-0.3,0.28-0.56,0.6-0.75,0.97
					c-0.2,0.38-0.33,0.77-0.4,1.2H521.85z"/>
				<path class="st1" d="M531.69,1050.37v1.92h-5.65v-1.92H531.69z"/>
				<path class="st1" d="M543.75,1057.67h-0.04c-0.49,0.73-1.08,1.29-1.8,1.69c-0.71,0.4-1.49,0.6-2.31,0.6
					c-1.8,0-3.21-0.62-4.24-1.87c-1.04-1.25-1.55-2.78-1.55-4.62c0-1.73,0.52-3.19,1.57-4.41c1.06-1.25,2.42-1.87,4.12-1.87
					c1.74,0,3.14,0.77,4.21,2.34h0.04v-12.25h2.32v22.26h-2.32V1057.67z M539.95,1057.91c1.23,0,2.19-0.42,2.88-1.25
					c0.7-0.86,1.06-1.9,1.06-3.1c0-1.2-0.36-2.22-1.06-3.06c-0.68-0.83-1.65-1.26-2.88-1.26c-1.14,0-2.08,0.43-2.78,1.29
					c-0.69,0.84-1.04,1.84-1.04,3.02c0,1.21,0.35,2.23,1.04,3.07C537.88,1057.49,538.81,1057.91,539.95,1057.91z"/>
				<path class="st1" d="M549.88,1049.03c1.26-1.22,2.79-1.83,4.61-1.83c1.8,0,3.34,0.61,4.57,1.83c1.26,1.23,1.89,2.75,1.89,4.55
					s-0.63,3.31-1.89,4.54c-1.23,1.23-2.76,1.84-4.57,1.84c-1.81,0-3.35-0.6-4.61-1.84c-1.23-1.23-1.85-2.74-1.85-4.54
					S548.64,1050.26,549.88,1049.03z M550.34,1053.58c0,1.11,0.41,2.09,1.22,2.95c0.79,0.82,1.77,1.23,2.92,1.23
					c1.13,0,2.11-0.41,2.92-1.23c0.82-0.86,1.22-1.84,1.22-2.95c0-1.13-0.4-2.11-1.22-2.95c-0.81-0.83-1.79-1.23-2.92-1.23
					c-1.15,0-2.13,0.4-2.92,1.23C550.75,1051.47,550.34,1052.45,550.34,1053.58z"/>
				<path class="st1" d="M567.19,1055.19l3.56-8.31l3.54,8.31l3.51-7.64h2.64l-6.15,12.41l-3.54-8.02l-3.56,8.02l-6.15-12.41h2.64
					L567.19,1055.19z"/>
				<path class="st1" d="M583.93,1049.16h0.05c0.34-0.64,0.85-1.11,1.51-1.46c0.64-0.35,1.37-0.5,2.14-0.5
					c0.8,0,1.47,0.11,2.01,0.35c0.55,0.23,1,0.58,1.33,1.02c0.35,0.45,0.59,0.99,0.73,1.63c0.15,0.64,0.21,1.38,0.21,2.19v7.16
					h-2.32v-6.87c0-1.18-0.16-2.04-0.51-2.59c-0.36-0.57-1.06-0.85-2.15-0.85c-0.4,0-0.73,0.04-1.01,0.12
					c-0.26,0.07-0.51,0.18-0.72,0.33c-0.21,0.15-0.39,0.32-0.52,0.5c-0.14,0.19-0.26,0.39-0.39,0.63c-0.04,0.11-0.09,0.27-0.13,0.46
					c-0.05,0.18-0.08,0.38-0.13,0.57c-0.03,0.2-0.05,0.39-0.08,0.6c-0.01,0.2-0.02,0.35-0.02,0.47v1.12v5.52h-2.33v-12h2.33V1049.16
					z"/>
				<path class="st1" d="M597.55,1059.55h-2.32v-22.26h2.32V1059.55z"/>
				<path class="st1" d="M601.63,1049.03c1.26-1.22,2.79-1.83,4.6-1.83c1.8,0,3.34,0.61,4.57,1.83c1.25,1.23,1.88,2.75,1.88,4.55
					s-0.63,3.31-1.88,4.54c-1.24,1.23-2.77,1.84-4.57,1.84c-1.81,0-3.34-0.6-4.6-1.84c-1.24-1.23-1.86-2.74-1.86-4.54
					S600.39,1050.26,601.63,1049.03z M602.1,1053.58c0,1.11,0.41,2.09,1.21,2.95c0.79,0.82,1.76,1.23,2.92,1.23
					c1.14,0,2.11-0.41,2.91-1.23c0.82-0.86,1.23-1.84,1.23-2.95c0-1.13-0.41-2.11-1.23-2.95c-0.8-0.83-1.77-1.23-2.91-1.23
					c-1.16,0-2.13,0.4-2.92,1.23C602.51,1051.47,602.1,1052.45,602.1,1053.58z"/>
				<path class="st1" d="M626.16,1059.55h-2.33v-1.88h-0.05c-1.03,1.53-2.4,2.29-4.11,2.29c-1.78,0-3.19-0.62-4.25-1.87
					c-1.03-1.25-1.53-2.78-1.53-4.62c0-1.73,0.52-3.19,1.57-4.41c1.05-1.25,2.43-1.87,4.13-1.87c1.73,0,3.13,0.77,4.19,2.34h0.05
					v-1.99h2.33V1059.55z M620.03,1057.91c1.22,0,2.18-0.42,2.87-1.25c0.7-0.86,1.05-1.9,1.05-3.1c0-1.2-0.35-2.22-1.05-3.06
					c-0.69-0.83-1.66-1.26-2.87-1.26c-1.15,0-2.09,0.43-2.79,1.29c-0.69,0.84-1.03,1.84-1.03,3.02c0,1.21,0.34,2.23,1.03,3.07
					C617.94,1057.49,618.88,1057.91,620.03,1057.91z"/>
				<path class="st1" d="M638.2,1057.67h-0.06c-0.48,0.73-1.08,1.29-1.8,1.69c-0.71,0.4-1.48,0.6-2.31,0.6
					c-1.79,0-3.2-0.62-4.24-1.87c-1.04-1.25-1.54-2.78-1.54-4.62c0-1.73,0.52-3.19,1.58-4.41c1.05-1.25,2.41-1.87,4.1-1.87
					c1.74,0,3.14,0.77,4.21,2.34h0.06v-12.25h2.32v22.26h-2.32V1057.67z M634.4,1057.91c1.22,0,2.18-0.42,2.86-1.25
					c0.71-0.86,1.05-1.9,1.05-3.1c0-1.2-0.35-2.22-1.05-3.06c-0.69-0.83-1.64-1.26-2.86-1.26c-1.16,0-2.08,0.43-2.8,1.29
					c-0.68,0.84-1.02,1.84-1.02,3.02c0,1.21,0.34,2.23,1.02,3.07C632.32,1057.49,633.24,1057.91,634.4,1057.91z"/>
				<path class="st1" d="M647.19,1058.47c0,0.41-0.14,0.77-0.43,1.05c-0.29,0.28-0.65,0.43-1.07,0.43c-0.41,0-0.78-0.15-1.06-0.43
					c-0.28-0.28-0.44-0.64-0.44-1.05c0-0.39,0.16-0.75,0.44-1.05c0.29-0.28,0.66-0.43,1.06-0.43c0.41,0,0.77,0.15,1.07,0.43
					C647.05,1057.73,647.19,1058.08,647.19,1058.47z"/>
				<path class="st1" d="M659.9,1050.96c-0.96-1.08-2.12-1.62-3.46-1.62c-1.12,0-2.07,0.43-2.86,1.27
					c-0.78,0.85-1.16,1.84-1.16,2.94c0,1.25,0.38,2.26,1.16,3.05c0.81,0.8,1.81,1.22,3.01,1.22c1.24,0,2.35-0.54,3.31-1.6v2.95
					c-1,0.54-2.11,0.79-3.33,0.79c-1.79,0-3.33-0.6-4.6-1.82c-1.26-1.2-1.88-2.69-1.88-4.49c0-1.84,0.62-3.38,1.88-4.62
					c1.26-1.22,2.82-1.83,4.72-1.83c1.25,0,2.32,0.26,3.21,0.79V1050.96z"/>
				<path class="st1" d="M663.19,1049.03c1.26-1.22,2.79-1.83,4.6-1.83c1.81,0,3.34,0.61,4.58,1.83c1.25,1.23,1.87,2.75,1.87,4.55
					s-0.62,3.31-1.87,4.54c-1.24,1.23-2.76,1.84-4.58,1.84c-1.81,0-3.34-0.6-4.6-1.84c-1.24-1.23-1.87-2.74-1.87-4.54
					S661.95,1050.26,663.19,1049.03z M663.65,1053.58c0,1.11,0.39,2.09,1.21,2.95c0.79,0.82,1.76,1.23,2.92,1.23
					c1.13,0,2.11-0.41,2.92-1.23c0.8-0.86,1.21-1.84,1.21-2.95c0-1.13-0.41-2.11-1.21-2.95c-0.81-0.83-1.79-1.23-2.92-1.23
					c-1.16,0-2.13,0.4-2.92,1.23C664.04,1051.47,663.65,1052.45,663.65,1053.58z"/>
				<path class="st1" d="M678.61,1049.07h0.06c0.33-0.56,0.79-1,1.38-1.36c0.57-0.34,1.18-0.51,1.82-0.51c1.51,0,2.67,0.7,3.49,2.12
					c0.37-0.65,0.9-1.17,1.56-1.55c0.65-0.38,1.39-0.57,2.15-0.57c2.68,0,4.01,1.72,4.01,5.18v7.17h-2.32v-6.8
					c0-0.3-0.02-0.62-0.04-0.91c-0.03-0.3-0.07-0.58-0.14-0.88c-0.07-0.27-0.17-0.53-0.32-0.78c-0.13-0.23-0.32-0.45-0.56-0.64
					c-0.31-0.2-0.71-0.3-1.19-0.3c-0.49,0-0.9,0.1-1.23,0.3c-0.33,0.2-0.59,0.44-0.77,0.71c-0.19,0.27-0.33,0.65-0.43,1.06
					c-0.09,0.42-0.17,0.81-0.19,1.16c-0.02,0.34-0.04,0.73-0.04,1.17v5.9h-2.33v-6.36c0-0.41,0-0.74-0.02-1.02
					c-0.02-0.29-0.07-0.62-0.15-1.04c-0.08-0.44-0.19-0.76-0.33-0.97c-0.14-0.24-0.35-0.45-0.64-0.64
					c-0.29-0.18-0.65-0.28-1.06-0.28c-1.19,0-1.95,0.52-2.3,1.54c-0.16,0.48-0.26,0.93-0.32,1.35c-0.04,0.43-0.07,0.94-0.07,1.51
					v5.9h-2.32v-12h2.32V1049.07z"/>
			</g>
			<g>
				<g>
					<path class="st1" d="M276.47,1052.48c10.97,0,21.94,0,32.91,0c1,0,1-1.54,0-1.54c-10.97,0-21.94,0-32.91,0
						C275.47,1050.94,275.47,1052.48,276.47,1052.48L276.47,1052.48z"/>
				</g>
				<g>
					<path class="st1" d="M714.37,1052.48c10.97,0,21.94,0,32.9,0c1.01,0,1.01-1.54,0-1.54c-10.97,0-21.94,0-32.9,0
						C713.38,1050.94,713.38,1052.48,714.37,1052.48L714.37,1052.48z"/>
				</g>
			</g>
		</g>
	</g>
</g>
<g id="Layer_3">
	<g>
		<defs>
			<rect id="SVGID_1_" x="-0.28" y="0.19" width="1024" height="1024"/>
		</defs>
		<clipPath id="SVGID_00000093175066483149945330000007848713883787077761_">
			<use xlink:href="#SVGID_1_"  style="overflow:visible;"/>
		</clipPath>
		
			<linearGradient id="SVGID_00000140692502494650295230000006516740673234972301_" gradientUnits="userSpaceOnUse" x1="511.7174" y1="30.5259" x2="511.7174" y2="1147.8878">
			<stop  offset="0" style="stop-color:#A4EEF2"/>
			<stop  offset="0.3313" style="stop-color:#95E3E1"/>
			<stop  offset="0.6397" style="stop-color:#70C8B8"/>
			<stop  offset="1" style="stop-color:#0098C6"/>
		</linearGradient>
		
			<rect x="-0.28" y="0.19" style="clip-path:url(#SVGID_00000093175066483149945330000007848713883787077761_);fill:url(#SVGID_00000140692502494650295230000006516740673234972301_);" width="1024" height="1024"/>
		<path style="opacity:0.44;clip-path:url(#SVGID_00000093175066483149945330000007848713883787077761_);fill:#B2FEF9;" d="
			M535.78,613.07c0-13.69-11.1-24.79-24.79-24.79c-1.71,0-3.37,0.17-4.98,0.5c0-0.17,0.03-0.33,0.03-0.5
			c0-10.95-8.88-19.83-19.83-19.83c-1.91,0-3.74,0.28-5.49,0.79c-2.53-13.16-14.09-23.1-27.98-23.1
			c-14.56,0-26.54,10.92-28.27,25.01c-2.55-1.7-5.62-2.69-8.91-2.69c-8.01,0-14.64,5.85-15.89,13.51c-2.43-0.71-5-1.11-7.67-1.11
			c-14.22,0-25.89,10.89-27.15,24.79h-0.13l0,0c0,14.55,11.79,26.34,26.34,26.34h125.98c10.35,0,18.75-8.39,18.75-18.75l0,0
			c0-0.02-0.01-0.03-0.01-0.05C535.77,613.14,535.78,613.1,535.78,613.07z"/>
		<path style="opacity:0.44;clip-path:url(#SVGID_00000093175066483149945330000007848713883787077761_);fill:#D0FEF9;" d="
			M575.38,447.15c0-10.55-8.55-19.1-19.1-19.1c-1.32,0-2.6,0.13-3.84,0.39c0-0.13,0.02-0.26,0.02-0.39
			c0-8.44-6.84-15.28-15.28-15.28c-1.47,0-2.88,0.22-4.23,0.61c-1.95-10.13-10.85-17.79-21.56-17.79
			c-11.21,0-20.45,8.41-21.78,19.26c-1.97-1.31-4.33-2.08-6.87-2.08c-6.17,0-11.28,4.51-12.24,10.41c-1.88-0.55-3.85-0.86-5.91-0.86
			c-10.96,0-19.95,8.39-20.91,19.1h-0.1l0,0c0,11.21,9.08,20.29,20.29,20.29h97.04c7.98,0,14.44-6.47,14.44-14.44l0,0
			c0-0.01,0-0.03,0-0.04C575.38,447.2,575.38,447.17,575.38,447.15z"/>
		<path style="opacity:0.36;clip-path:url(#SVGID_00000093175066483149945330000007848713883787077761_);fill:#88DAE4;" d="
			M848.72,735.95c0-9.78-7.93-17.72-17.72-17.72c-1.22,0-2.41,0.12-3.56,0.36c0-0.12,0.02-0.24,0.02-0.36
			c0-7.83-6.35-14.17-14.17-14.17c-1.36,0-2.67,0.2-3.92,0.56c-1.81-9.4-10.07-16.51-20-16.51c-10.4,0-18.97,7.8-20.2,17.87
			c-1.82-1.21-4.01-1.93-6.37-1.93c-5.72,0-10.46,4.18-11.35,9.65c-1.74-0.51-3.57-0.79-5.48-0.79c-10.17,0-18.5,7.79-19.4,17.72
			h-0.09l0,0c0,10.4,8.43,18.82,18.82,18.82h90.02c7.4,0,13.4-6,13.4-13.4l0,0c0-0.01,0-0.02,0-0.04
			C848.71,736,848.72,735.98,848.72,735.95z"/>
		<g style="clip-path:url(#SVGID_00000093175066483149945330000007848713883787077761_);">
			<circle class="st7" cx="227.6" cy="134.32" r="4.25"/>
			<circle class="st7" cx="400.87" cy="59.91" r="4.25"/>
			<circle class="st7" cx="711.27" cy="336.29" r="4.25"/>
			<circle class="st7" cx="532.69" cy="152.39" r="4.25"/>
			<circle class="st7" cx="741.04" cy="122.63" r="4.25"/>
			<circle class="st7" cx="196.77" cy="248.06" r="4.25"/>
			<circle class="st7" cx="252.05" cy="332.04" r="4.25"/>
			<circle class="st7" cx="150" cy="118.38" r="4.25"/>
			<circle class="st7" cx="409.38" cy="380.94" r="4.25"/>
		</g>
		<g style="opacity:0.41;clip-path:url(#SVGID_00000093175066483149945330000007848713883787077761_);">
			<circle class="st7" cx="357.49" cy="326.9" r="4.07"/>
			<circle class="st7" cx="983.38" cy="231.86" r="4.07"/>
			<circle class="st7" cx="848.97" cy="420.58" r="4.07"/>
			<circle class="st7" cx="987.46" cy="445.02" r="4.07"/>
			<circle class="st7" cx="751.22" cy="273.95" r="4.07"/>
			<circle class="st7" cx="220.37" cy="214.21" r="4.07"/>
			<circle class="st7" cx="304.54" cy="434.15" r="4.07"/>
			<circle class="st7" cx="103.61" cy="512.9" r="4.07"/>
			<circle class="st7" cx="641.25" cy="609.29" r="4.07"/>
			<circle class="st7" cx="464.75" cy="689.4" r="4.07"/>
		</g>
		<g style="opacity:0.41;clip-path:url(#SVGID_00000093175066483149945330000007848713883787077761_);">
			<circle class="st7" cx="183.43" cy="781.52" r="1.92"/>
			<circle class="st7" cx="478.21" cy="736.76" r="1.92"/>
			<circle class="st7" cx="414.9" cy="825.64" r="1.92"/>
			<circle class="st7" cx="480.12" cy="837.15" r="1.92"/>
			<circle class="st7" cx="368.87" cy="756.58" r="1.92"/>
			<circle class="st7" cx="118.85" cy="728.44" r="1.92"/>
			<circle class="st7" cx="158.5" cy="832.03" r="1.92"/>
			<circle class="st7" cx="63.86" cy="869.12" r="1.92"/>
			<circle class="st7" cx="317.07" cy="914.52" r="1.92"/>
			<circle class="st7" cx="233.95" cy="952.24" r="1.92"/>
		</g>
		<g style="opacity:0.41;clip-path:url(#SVGID_00000093175066483149945330000007848713883787077761_);">
			<circle class="st7" cx="682" cy="733.07" r="1.92"/>
			<circle class="st7" cx="976.77" cy="688.31" r="1.92"/>
			<circle class="st7" cx="913.47" cy="777.19" r="1.92"/>
			<circle class="st7" cx="978.69" cy="788.7" r="1.92"/>
			<circle class="st7" cx="867.43" cy="708.14" r="1.92"/>
			<circle class="st7" cx="772.72" cy="781.19" r="1.92"/>
			<circle class="st7" cx="837.94" cy="792.7" r="1.92"/>
			<circle class="st7" cx="726.68" cy="712.14" r="1.92"/>
			<circle class="st7" cx="303.38" cy="738.53" r="1.92"/>
			<circle class="st7" cx="368.6" cy="750.04" r="1.92"/>
			<circle class="st7" cx="257.35" cy="669.47" r="1.92"/>
			<circle class="st7" cx="404.68" cy="522.7" r="1.92"/>
			<circle class="st7" cx="470.11" cy="532.97" r="1.92"/>
			<circle class="st7" cx="357.34" cy="454.53" r="1.92"/>
			<circle class="st7" cx="668.64" cy="482.5" r="1.92"/>
			<circle class="st7" cx="575.97" cy="534.49" r="1.92"/>
			<circle class="st7" cx="256.75" cy="575.11" r="1.92"/>
			<circle class="st7" cx="734.03" cy="492.95" r="1.92"/>
			<circle class="st7" cx="621.48" cy="414.2" r="1.92"/>
			<circle class="st7" cx="617.41" cy="680" r="1.92"/>
			<circle class="st7" cx="657.06" cy="783.59" r="1.92"/>
			<circle class="st7" cx="562.42" cy="820.67" r="1.92"/>
			<circle class="st7" cx="815.63" cy="866.07" r="1.92"/>
			<circle class="st7" cx="732.51" cy="903.8" r="1.92"/>
		</g>
		<path style="opacity:0.68;clip-path:url(#SVGID_00000093175066483149945330000007848713883787077761_);fill:#FFFEF9;" d="
			M839.92,532.65c-0.01-0.08-0.01-0.15-0.02-0.23c-0.02-0.12-0.03-0.23-0.05-0.35c-1.08-8.3-8.16-14.72-16.75-14.72
			c-0.09,0-0.17,0.01-0.26,0.01c-1.77-13.64-13.41-24.17-27.52-24.17c-12.88,0-23.68,8.78-26.83,20.67
			c-4.1-3.31-9.77-4.76-15.73-3.01c-7.13,2.1-11.8,8.94-11.8,16.37v0.37c0,11.7,9.45,21.16,21.11,21.16h62.64
			c8.45,0,15.3-6.85,15.3-15.3v0C840,533.18,839.95,532.92,839.92,532.65z"/>
		<path style="opacity:0.68;clip-path:url(#SVGID_00000093175066483149945330000007848713883787077761_);fill:#FFFEF9;" d="
			M268.37,507.49c-0.01-0.08-0.02-0.16-0.02-0.25c-0.02-0.12-0.03-0.25-0.06-0.37c-1.15-8.9-8.75-15.78-17.96-15.78
			c-0.09,0-0.19,0.01-0.28,0.01c-1.9-14.62-14.37-25.91-29.51-25.91c-13.81,0-25.39,9.41-28.76,22.16
			c-4.39-3.55-10.47-5.1-16.86-3.22c-7.64,2.25-12.65,9.59-12.65,17.55v0.4c0,12.54,10.13,22.69,22.63,22.69h67.15
			c9.06,0,16.4-7.34,16.4-16.4v0C268.46,508.06,268.41,507.78,268.37,507.49z"/>
		<path style="opacity:0.68;clip-path:url(#SVGID_00000093175066483149945330000007848713883787077761_);fill:#FFFEF9;" d="
			M574.25,671.74c-0.01-0.06-0.01-0.12-0.02-0.19c-0.02-0.09-0.02-0.19-0.04-0.28c-0.87-6.71-6.59-11.9-13.54-11.9
			c-0.07,0-0.14,0.01-0.21,0.01c-1.43-11.02-10.83-19.53-22.24-19.53c-10.41,0-19.14,7.09-21.68,16.7
			c-3.31-2.68-7.89-3.85-12.71-2.43c-5.76,1.7-9.54,7.23-9.54,13.23v0.3c0,9.45,7.64,17.1,17.06,17.1h50.62
			c6.83,0,12.36-5.54,12.36-12.36v0C574.32,672.17,574.28,671.96,574.25,671.74z"/>
		<path style="clip-path:url(#SVGID_00000093175066483149945330000007848713883787077761_);fill:#7CE4FF;" d="M407.3,791.77
			c-0.01-0.08-0.02-0.16-0.02-0.23c-0.02-0.12-0.03-0.24-0.05-0.35c-1.1-8.46-8.31-15-17.07-15c-0.09,0-0.18,0.01-0.27,0.01
			c-1.81-13.89-13.65-24.62-28.04-24.62c-13.12,0-24.12,8.94-27.33,21.05c-4.18-3.37-9.95-4.85-16.02-3.06
			c-7.26,2.14-12.02,9.11-12.02,16.68v0.38c0,11.92,9.63,21.56,21.51,21.56h63.81c8.61,0,15.59-6.98,15.59-15.59l0,0
			C407.38,792.31,407.34,792.04,407.3,791.77z"/>
		<path style="opacity:0.36;clip-path:url(#SVGID_00000093175066483149945330000007848713883787077761_);fill:#44C6C0;" d="
			M365.75,369.71c-0.01-0.09-0.02-0.17-0.03-0.26c-0.02-0.13-0.03-0.26-0.06-0.39c-1.21-9.37-9.2-16.61-18.9-16.61
			c-0.1,0-0.2,0.01-0.29,0.01c-2-15.38-15.12-27.27-31.05-27.27c-14.53,0-26.72,9.9-30.27,23.32c-4.62-3.74-11.02-5.37-17.74-3.39
			c-8.04,2.37-13.32,10.09-13.32,18.47v0.42c0,13.2,10.66,23.88,23.82,23.88h70.67c9.53,0,17.26-7.73,17.26-17.26l0,0
			C365.84,370.31,365.78,370.01,365.75,369.71z"/>
		<path style="opacity:0.36;clip-path:url(#SVGID_00000093175066483149945330000007848713883787077761_);fill:#96C6C6;" d="
			M198.47,670.55c-0.01-0.07-0.01-0.14-0.02-0.22c-0.02-0.11-0.03-0.22-0.05-0.33c-1.02-7.85-7.72-13.92-15.85-13.92
			c-0.08,0-0.16,0.01-0.25,0.01c-1.68-12.89-12.68-22.86-26.03-22.86c-12.18,0-22.4,8.3-25.37,19.55c-3.88-3.13-9.24-4.5-14.87-2.84
			c-6.74,1.98-11.16,8.46-11.16,15.48v0.35c0,11.06,8.94,20.01,19.97,20.01h59.24c7.99,0,14.47-6.48,14.47-14.47l0,0
			C198.54,671.06,198.5,670.81,198.47,670.55z"/>
		<path style="opacity:0.36;clip-path:url(#SVGID_00000093175066483149945330000007848713883787077761_);fill:#44C6C0;" d="
			M892.61,283.77c-0.01-0.1-0.02-0.2-0.03-0.3c-0.02-0.15-0.04-0.3-0.07-0.45c-1.39-10.69-10.5-18.96-21.57-18.96
			c-0.11,0-0.22,0.02-0.34,0.02c-2.28-17.56-17.26-31.13-35.44-31.13c-16.59,0-30.49,11.3-34.55,26.61
			c-5.28-4.27-12.58-6.13-20.25-3.87c-9.18,2.7-15.2,11.51-15.2,21.08v0.48c0,15.06,12.17,27.25,27.18,27.25h80.66
			c10.88,0,19.7-8.82,19.7-19.7l0,0C892.72,284.45,892.66,284.11,892.61,283.77z"/>
		
			<circle style="clip-path:url(#SVGID_00000093175066483149945330000007848713883787077761_);fill:#42D0D8;" cx="762.66" cy="967.03" r="81.46"/>
		
			<circle style="clip-path:url(#SVGID_00000093175066483149945330000007848713883787077761_);fill:#5ADAD4;" cx="760.29" cy="842.73" r="20.42"/>
		
			<circle style="clip-path:url(#SVGID_00000093175066483149945330000007848713883787077761_);fill:#58BCBA;" cx="75.67" cy="833.97" r="61.1"/>
		
			<circle style="clip-path:url(#SVGID_00000093175066483149945330000007848713883787077761_);fill:#58BCBA;" cx="135.41" cy="880.14" r="42.09"/>
		
			<circle style="opacity:0.88;clip-path:url(#SVGID_00000093175066483149945330000007848713883787077761_);fill:#5EE0C2;" cx="254.21" cy="929.69" r="91.64"/>
		
			<circle style="clip-path:url(#SVGID_00000093175066483149945330000007848713883787077761_);fill:#76E0DF;" cx="508.1" cy="944.63" r="64.49"/>
		
			<circle style="clip-path:url(#SVGID_00000093175066483149945330000007848713883787077761_);fill:#76E0DF;" cx="414.23" cy="938.49" r="53.29"/>
		
			<circle style="clip-path:url(#SVGID_00000093175066483149945330000007848713883787077761_);fill:#32DEDF;" cx="621.46" cy="907.29" r="80.1"/>
		
			<circle style="clip-path:url(#SVGID_00000093175066483149945330000007848713883787077761_);fill:#74E1DF;" cx="893" cy="842.12" r="38.02"/>
		
			<circle style="clip-path:url(#SVGID_00000093175066483149945330000007848713883787077761_);fill:#58BCBA;" cx="14.58" cy="772.88" r="51.59"/>
		
			<circle style="clip-path:url(#SVGID_00000093175066483149945330000007848713883787077761_);fill:#74E1DF;" cx="993.47" cy="838.05" r="73.31"/>
		
			<circle style="clip-path:url(#SVGID_00000093175066483149945330000007848713883787077761_);fill:#76E6C6;" cx="1014.96" cy="732.15" r="56.34"/>
		<g style="opacity:0.34;clip-path:url(#SVGID_00000093175066483149945330000007848713883787077761_);">
			<path class="st22" d="M981.25,765.19c-1.23-1.2-17.89-18.04-13.12-42.09c4.63-23.37,25.35-32.72,27.15-33.49"/>
			<path class="st23" d="M1009.34,685.22c0-1.95-1.58-3.54-3.54-3.54c-1.95,0-3.54,1.58-3.54,3.54c0,1.95,1.58,3.54,3.54,3.54
				C1007.75,688.76,1009.34,687.18,1009.34,685.22z"/>
		</g>
		<g style="opacity:0.34;clip-path:url(#SVGID_00000093175066483149945330000007848713883787077761_);">
			<path class="st24" d="M560.82,881.49c7.6-23.81,28.12-40.91,52.04-43.45c31.76-3.37,52.3,20.74,53.85,22.63"/>
			<path class="st23" d="M560.82,892.04c0-1.95-1.58-3.54-3.54-3.54s-3.54,1.58-3.54,3.54c0,1.95,1.58,3.54,3.54,3.54
				S560.82,894,560.82,892.04z"/>
		</g>
		<g style="opacity:0.34;clip-path:url(#SVGID_00000093175066483149945330000007848713883787077761_);">
			<path class="st24" d="M195.83,877.42c1.77-2.2,25.75-30.87,64.49-27.15c39.06,3.75,57.13,36.97,58.38,39.37"/>
			<path class="st23" d="M192.01,886.25c0-1.95-1.58-3.54-3.54-3.54c-1.95,0-3.54,1.58-3.54,3.54s1.58,3.54,3.54,3.54
				C190.43,889.78,192.01,888.2,192.01,886.25z"/>
		</g>
		<g style="clip-path:url(#SVGID_00000093175066483149945330000007848713883787077761_);">
			<circle class="st25" cx="880.78" cy="944.63" r="96.4"/>
			
				<ellipse transform="matrix(0.9734 -0.2293 0.2293 0.9734 -209.8936 181.2389)" class="st26" cx="675.03" cy="993.91" rx="61.38" ry="61.38"/>
			<circle class="st27" cx="463.97" cy="1007.76" r="85.53"/>
			<circle class="st28" cx="124.55" cy="994.18" r="96.4"/>
			<circle class="st29" cx="34.27" cy="886.25" r="90.29"/>
			<circle class="st30" cx="345.85" cy="1021.33" r="69.24"/>
			<g class="st31">
				<path class="st24" d="M797.28,943.95c-0.08-5.08-0.08-34.12,23.08-57.02c20.59-20.36,45.59-22.14,51.59-22.4"/>
				<path class="st23" d="M886.13,864.52c0-1.95-1.58-3.54-3.54-3.54c-1.95,0-3.54,1.58-3.54,3.54c0,1.95,1.58,3.54,3.54,3.54
					C884.54,868.06,886.13,866.48,886.13,864.52z"/>
			</g>
			<circle class="st32" cx="1002.97" cy="610.44" r="70.58"/>
			<g class="st31">
				<path class="st24" d="M941.83,609.94c-0.06-3.72-0.06-24.98,16.9-41.75c15.08-14.91,33.38-16.21,37.78-16.4"/>
				<path class="st23" d="M1006.88,551.79c0-1.43-1.16-2.59-2.59-2.59c-1.43,0-2.59,1.16-2.59,2.59s1.16,2.59,2.59,2.59
					C1005.72,554.38,1006.88,553.22,1006.88,551.79z"/>
			</g>
			<circle class="st33" cx="594.97" cy="739.77" r="41.25"/>
			<g class="st31">
				<path class="st24" d="M559.24,739.48c-0.04-2.17-0.03-14.6,9.88-24.4c8.81-8.71,19.51-9.47,22.08-9.59"/>
				<path class="st23" d="M597.25,705.5c0-0.84-0.68-1.51-1.51-1.51s-1.51,0.68-1.51,1.51s0.68,1.51,1.51,1.51
					S597.25,706.33,597.25,705.5z"/>
			</g>
			<circle class="st34" cx="216.97" cy="763.11" r="28.58"/>
			<g class="st31">
				<path class="st24" d="M192.21,762.91c-0.02-1.51-0.02-10.12,6.84-16.91c6.1-6.04,13.52-6.56,15.3-6.64"/>
				<path class="st23" d="M218.55,739.36c0-0.58-0.47-1.05-1.05-1.05c-0.58,0-1.05,0.47-1.05,1.05c0,0.58,0.47,1.05,1.05,1.05
					C218.08,740.4,218.55,739.94,218.55,739.36z"/>
			</g>
			<g class="st31">
				<path class="st24" d="M24.08,810.22c4.49-0.73,31.84-4.68,55.66,14.26c28.17,22.39,26.67,57.13,26.47,60.42"/>
				<path class="st23" d="M109.83,898.89c0-1.95-1.58-3.54-3.54-3.54c-1.95,0-3.54,1.58-3.54,3.54c0,1.95,1.58,3.54,3.54,3.54
					C108.25,902.42,109.83,900.84,109.83,898.89z"/>
			</g>
		</g>
		<g style="clip-path:url(#SVGID_00000093175066483149945330000007848713883787077761_);">
			<circle class="st35" cx="576.89" cy="993.5" r="60.42"/>
			<circle class="st36" cx="656.99" cy="1025.84" r="38.69"/>
			<circle class="st37" cx="1008.4" cy="965.67" r="127.62"/>
			<circle class="st38" cx="0.16" cy="1002.28" r="65.17"/>
			<circle class="st39" cx="229.09" cy="1037.63" r="85.53"/>
			<circle class="st40" cx="422.56" cy="1041.02" r="85.53"/>
			<g class="st31">
				<path class="st22" d="M899.11,983.32c-1.34-6.74-8.38-45.54,16.97-80.78c18.84-26.19,44.71-35.31,53.63-38.02"/>
				<path class="st23" d="M987.27,859.69c0-1.95-1.58-3.54-3.54-3.54c-1.95,0-3.54,1.58-3.54,3.54c0,1.95,1.58,3.54,3.54,3.54
					C985.69,863.22,987.27,861.64,987.27,859.69z"/>
			</g>
			<g class="st31">
				<path class="st24" d="M357.39,1007.08c1.99-4.58,10.9-23.72,33.26-33.94c22.82-10.44,43.56-4.23,48.2-2.72"/>
				<path class="st23" d="M454.04,976.53c0-1.95-1.58-3.54-3.54-3.54c-1.95,0-3.54,1.58-3.54,3.54s1.58,3.54,3.54,3.54
					C452.46,980.07,454.04,978.48,454.04,976.53z"/>
			</g>
			<g class="st31">
				<path class="st24" d="M168,1004.36c1.2-2.44,16.84-32.83,51.59-37.34c30.35-3.94,51.42,14.96,54.31,17.65"/>
				<path class="st23" d="M285.92,994.18c0-1.95-1.58-3.54-3.54-3.54c-1.95,0-3.54,1.58-3.54,3.54c0,1.95,1.58,3.54,3.54,3.54
					C284.33,997.72,285.92,996.13,285.92,994.18z"/>
			</g>
			<g>
				<path class="st41" d="M539.1,959.33c3.12-2.98,14.93-13.54,33.49-14.71c20.18-1.27,34.03,9.48,37.11,11.99"/>
				<path class="st42" d="M617.49,963.63c0-1.21-0.98-2.19-2.19-2.19c-1.21,0-2.19,0.98-2.19,2.19c0,1.21,0.98,2.19,2.19,2.19
					C616.51,965.83,617.49,964.84,617.49,963.63z"/>
			</g>
		</g>
		<path style="opacity:0.44;clip-path:url(#SVGID_00000093175066483149945330000007848713883787077761_);fill:#C6FEF9;" d="
			M1056.24,573.82c0-23.01-18.66-41.67-41.67-41.67c-2.87,0-5.67,0.29-8.38,0.84c0.01-0.28,0.04-0.56,0.04-0.84
			c0-18.41-14.92-33.34-33.34-33.34c-3.2,0-6.29,0.48-9.22,1.32c-4.25-22.11-23.68-38.82-47.03-38.82
			c-24.47,0-44.61,18.35-47.52,42.03c-4.29-2.86-9.44-4.53-14.98-4.53c-13.46,0-24.6,9.83-26.7,22.7c-4.09-1.2-8.41-1.87-12.89-1.87
			c-23.91,0-43.52,18.31-45.63,41.67h-0.21v0c0,24.45,19.82,44.27,44.27,44.27h211.73c17.4,0,31.51-14.11,31.51-31.51l0,0
			c0-0.03-0.01-0.06-0.01-0.09C1056.23,573.94,1056.24,573.88,1056.24,573.82z"/>
		<path style="opacity:0.44;clip-path:url(#SVGID_00000093175066483149945330000007848713883787077761_);fill:#CAFEF9;" d="
			M211.38,530.91c0-21.73-17.62-39.34-39.34-39.34c-2.71,0-5.35,0.27-7.91,0.8c0.01-0.27,0.04-0.53,0.04-0.8
			c0-17.38-14.09-31.48-31.48-31.48c-3.02,0-5.94,0.45-8.71,1.25c-4.02-20.88-22.36-36.66-44.41-36.66
			c-23.1,0-42.12,17.33-44.87,39.69c-4.05-2.7-8.91-4.28-14.15-4.28c-12.71,0-23.23,9.29-25.21,21.44
			c-3.86-1.13-7.94-1.77-12.17-1.77c-22.57,0-41.09,17.29-43.08,39.34h-0.2l0,0c0,23.09,18.72,41.8,41.8,41.8h199.92
			c16.43,0,29.75-13.32,29.75-29.75l0,0c0-0.03-0.01-0.05-0.01-0.08C211.38,531.02,211.38,530.97,211.38,530.91z"/>
	</g>
</g>
<g id="Layer_6">
</g>
<g id="Layer_4">
</g>
</svg>
